<svg width="164" height="47" viewBox="0 0 164 47" fill="none" xmlns="http://www.w3.org/2000/svg">
<rect width="164" height="46.2564" rx="4" fill="#0F1726"/>
<path d="M18 14.1875C18 13.5317 18.5373 13 19.2 13H24.8C25.4627 13 26 13.5317 26 14.1875V19.3333H19.2C18.5373 19.3333 18 18.8017 18 18.1458V14.1875Z" fill="#F26207"/>
<path d="M26 19.3333H32.8C33.4627 19.3333 34 19.865 34 20.5208V24.4792C34 25.135 33.4627 25.6667 32.8 25.6667H26V19.3333Z" fill="#F26207"/>
<path d="M18 26.8542C18 26.1983 18.5373 25.6667 19.2 25.6667H26V30.8125C26 31.4683 25.4627 32 24.8 32H19.2C18.5373 32 18 31.4683 18 30.8125V26.8542Z" fill="#F26207"/>
<path d="M39.312 28V16.832H44.48C46.32 16.832 47.44 17.968 47.44 19.696C47.44 21.392 46.464 22.032 45.44 22.096V22.192C46.416 22.208 47.856 22.896 47.856 24.8C47.856 26.592 46.624 28 44.976 28H39.312ZM41.424 23.216V26.208H44.368C45.168 26.208 45.648 25.776 45.648 24.992V24.448C45.648 23.664 45.168 23.216 44.368 23.216H41.424ZM41.424 18.624V21.488H44.032C44.8 21.488 45.248 21.04 45.248 20.304V19.808C45.248 19.056 44.8 18.624 44.032 18.624H41.424ZM54.7854 28V26.608H54.7054C54.4174 27.44 53.7454 28.192 52.3694 28.192C50.6574 28.192 49.6974 27.008 49.6974 24.928V19.648H51.7454V24.72C51.7454 25.872 52.1774 26.496 53.1534 26.496C53.9694 26.496 54.7854 26.064 54.7854 25.168V19.648H56.8334V28H54.7854ZM60.2236 18.432C59.3756 18.432 59.0236 18 59.0236 17.408V17.088C59.0236 16.496 59.3756 16.064 60.2236 16.064C61.0556 16.064 61.4236 16.496 61.4236 17.088V17.408C61.4236 18 61.0556 18.432 60.2236 18.432ZM59.1996 28V19.648H61.2476V28H59.1996ZM66.7735 28H65.6695C64.2775 28 63.6215 27.264 63.6215 25.984V16.16H65.6695V26.368H66.7735V28ZM70.8545 28C69.4465 28 68.6945 27.232 68.6945 25.872V21.28H67.4625V19.648H68.1025C68.7105 19.648 68.9025 19.36 68.9025 18.784V17.36H70.7425V19.648H72.4545V21.28H70.7425V26.368H72.3265V28H70.8545ZM81.3241 28.192C78.9401 28.192 77.4521 26.496 77.4521 23.808C77.4521 21.136 78.9401 19.456 81.3241 19.456C83.7241 19.456 85.2121 21.136 85.2121 23.808C85.2121 26.496 83.7241 28.192 81.3241 28.192ZM81.3241 26.544C82.3961 26.544 83.0681 25.856 83.0681 24.592V23.04C83.0681 21.792 82.3961 21.104 81.3241 21.104C80.2681 21.104 79.5961 21.792 79.5961 23.04V24.592C79.5961 25.856 80.2681 26.544 81.3241 26.544ZM89.0758 28H87.0278V19.648H89.0758V21.04H89.1558C89.4918 20.144 90.1958 19.456 91.4918 19.456C93.2038 19.456 94.1638 20.64 94.1638 22.72V28H92.1158V22.928C92.1158 21.744 91.7158 21.136 90.7398 21.136C89.8918 21.136 89.0758 21.584 89.0758 22.48V28ZM102.455 23.696V28H100.343V16.832H105.383C107.415 16.832 108.679 18.176 108.679 20.288C108.679 21.824 107.975 22.992 106.599 23.456L108.887 28H106.535L104.455 23.696H102.455ZM102.455 21.92H105.175C105.991 21.92 106.487 21.472 106.487 20.656V19.92C106.487 19.104 105.991 18.672 105.175 18.672H102.455V21.92ZM113.982 28.192C111.518 28.192 110.046 26.48 110.046 23.808C110.046 21.168 111.47 19.456 113.918 19.456C116.526 19.456 117.726 21.376 117.726 23.664V24.336H112.174V24.544C112.174 25.744 112.862 26.56 114.206 26.56C115.214 26.56 115.822 26.08 116.334 25.424L117.438 26.656C116.75 27.6 115.534 28.192 113.982 28.192ZM113.95 20.992C112.878 20.992 112.174 21.792 112.174 22.944V23.072H115.598V22.928C115.598 21.776 115.006 20.992 113.95 20.992ZM119.528 31.2V19.648H121.576V21.024H121.64C121.944 20.064 122.84 19.456 123.944 19.456C126.056 19.456 127.224 21.024 127.224 23.808C127.224 26.608 126.056 28.192 123.944 28.192C122.84 28.192 121.96 27.552 121.64 26.608H121.576V31.2H119.528ZM123.288 26.496C124.344 26.496 125.08 25.728 125.08 24.544V23.104C125.08 21.92 124.344 21.136 123.288 21.136C122.312 21.136 121.576 21.664 121.576 22.48V25.136C121.576 26 122.312 26.496 123.288 26.496ZM132.274 28H131.17C129.778 28 129.122 27.264 129.122 25.984V16.16H131.17V26.368H132.274V28ZM134.849 18.432C134.001 18.432 133.649 18 133.649 17.408V17.088C133.649 16.496 134.001 16.064 134.849 16.064C135.681 16.064 136.049 16.496 136.049 17.088V17.408C136.049 18 135.681 18.432 134.849 18.432ZM133.825 28V19.648H135.873V28H133.825ZM140.855 28C139.447 28 138.695 27.232 138.695 25.872V21.28H137.463V19.648H138.103C138.711 19.648 138.903 19.36 138.903 18.784V17.36H140.743V19.648H142.455V21.28H140.743V26.368H142.327V28H140.855Z" fill="white"/>
</svg>
