<svg width="168" height="44" viewBox="0 0 168 44" fill="none" xmlns="http://www.w3.org/2000/svg">
<rect x="0.5" y="0.5" width="167" height="43" rx="3.5" fill="#0F1726"/>
<path d="M14 13.1875C14 12.5317 14.5373 12 15.2 12H20.8C21.4627 12 22 12.5317 22 13.1875V18.3333H15.2C14.5373 18.3333 14 17.8017 14 17.1458V13.1875Z" fill="#F26207"/>
<path d="M22 18.3333H28.8C29.4627 18.3333 30 18.865 30 19.5208V23.4792C30 24.135 29.4627 24.6667 28.8 24.6667H22V18.3333Z" fill="#F26207"/>
<path d="M14 25.8542C14 25.1983 14.5373 24.6667 15.2 24.6667H22V29.8125C22 30.4683 21.4627 31 20.8 31H15.2C14.5373 31 14 30.4683 14 29.8125V25.8542Z" fill="#F26207"/>
<path d="M39.312 27V15.832H44.48C46.32 15.832 47.44 16.968 47.44 18.696C47.44 20.392 46.464 21.032 45.44 21.096V21.192C46.416 21.208 47.856 21.896 47.856 23.8C47.856 25.592 46.624 27 44.976 27H39.312ZM41.424 22.216V25.208H44.368C45.168 25.208 45.648 24.776 45.648 23.992V23.448C45.648 22.664 45.168 22.216 44.368 22.216H41.424ZM41.424 17.624V20.488H44.032C44.8 20.488 45.248 20.04 45.248 19.304V18.808C45.248 18.056 44.8 17.624 44.032 17.624H41.424ZM54.7854 27V25.608H54.7054C54.4174 26.44 53.7454 27.192 52.3694 27.192C50.6574 27.192 49.6974 26.008 49.6974 23.928V18.648H51.7454V23.72C51.7454 24.872 52.1774 25.496 53.1534 25.496C53.9694 25.496 54.7854 25.064 54.7854 24.168V18.648H56.8334V27H54.7854ZM60.2236 17.432C59.3756 17.432 59.0236 17 59.0236 16.408V16.088C59.0236 15.496 59.3756 15.064 60.2236 15.064C61.0556 15.064 61.4236 15.496 61.4236 16.088V16.408C61.4236 17 61.0556 17.432 60.2236 17.432ZM59.1996 27V18.648H61.2476V27H59.1996ZM66.7735 27H65.6695C64.2775 27 63.6215 26.264 63.6215 24.984V15.16H65.6695V25.368H66.7735V27ZM70.8545 27C69.4465 27 68.6945 26.232 68.6945 24.872V20.28H67.4625V18.648H68.1025C68.7105 18.648 68.9025 18.36 68.9025 17.784V16.36H70.7425V18.648H72.4545V20.28H70.7425V25.368H72.3265V27H70.8545ZM79.5001 27L77.1961 18.648H79.1641L80.0121 22.088L80.6681 24.952H80.7321L81.5001 22.088L82.4761 18.648H84.3321L85.3401 22.088L86.1241 24.952H86.1881L86.8441 22.088L87.6761 18.648H89.5801L87.2921 27H85.0841L84.0121 23.32L83.3881 21.048H83.3401L82.7321 23.32L81.6761 27H79.5001ZM92.1455 17.432C91.2975 17.432 90.9455 17 90.9455 16.408V16.088C90.9455 15.496 91.2975 15.064 92.1455 15.064C92.9775 15.064 93.3455 15.496 93.3455 16.088V16.408C93.3455 17 92.9775 17.432 92.1455 17.432ZM91.1215 27V18.648H93.1695V27H91.1215ZM98.1514 27C96.7434 27 95.9914 26.232 95.9914 24.872V20.28H94.7594V18.648H95.3994C96.0074 18.648 96.1994 18.36 96.1994 17.784V16.36H98.0394V18.648H99.7514V20.28H98.0394V25.368H99.6234V27H98.1514ZM101.528 27V15.16H103.576V20.04H103.656C103.992 19.144 104.696 18.456 105.992 18.456C107.704 18.456 108.664 19.64 108.664 21.72V27H106.616V21.928C106.616 20.744 106.216 20.136 105.24 20.136C104.392 20.136 103.576 20.584 103.576 21.48V27H101.528ZM116.955 22.696V27H114.843V15.832H119.883C121.915 15.832 123.179 17.176 123.179 19.288C123.179 20.824 122.475 21.992 121.099 22.456L123.387 27H121.035L118.955 22.696H116.955ZM116.955 20.92H119.675C120.491 20.92 120.987 20.472 120.987 19.656V18.92C120.987 18.104 120.491 17.672 119.675 17.672H116.955V20.92ZM128.482 27.192C126.018 27.192 124.546 25.48 124.546 22.808C124.546 20.168 125.97 18.456 128.418 18.456C131.026 18.456 132.226 20.376 132.226 22.664V23.336H126.674V23.544C126.674 24.744 127.362 25.56 128.706 25.56C129.714 25.56 130.322 25.08 130.834 24.424L131.938 25.656C131.25 26.6 130.034 27.192 128.482 27.192ZM128.45 19.992C127.378 19.992 126.674 20.792 126.674 21.944V22.072H130.098V21.928C130.098 20.776 129.506 19.992 128.45 19.992ZM134.028 30.2V18.648H136.076V20.024H136.14C136.444 19.064 137.34 18.456 138.444 18.456C140.556 18.456 141.724 20.024 141.724 22.808C141.724 25.608 140.556 27.192 138.444 27.192C137.34 27.192 136.46 26.552 136.14 25.608H136.076V30.2H134.028ZM137.788 25.496C138.844 25.496 139.58 24.728 139.58 23.544V22.104C139.58 20.92 138.844 20.136 137.788 20.136C136.812 20.136 136.076 20.664 136.076 21.48V24.136C136.076 25 136.812 25.496 137.788 25.496ZM146.774 27H145.67C144.278 27 143.622 26.264 143.622 24.984V15.16H145.67V25.368H146.774V27ZM149.349 17.432C148.501 17.432 148.149 17 148.149 16.408V16.088C148.149 15.496 148.501 15.064 149.349 15.064C150.181 15.064 150.549 15.496 150.549 16.088V16.408C150.549 17 150.181 17.432 149.349 17.432ZM148.325 27V18.648H150.373V27H148.325ZM155.355 27C153.947 27 153.195 26.232 153.195 24.872V20.28H151.963V18.648H152.603C153.211 18.648 153.403 18.36 153.403 17.784V16.36H155.243V18.648H156.955V20.28H155.243V25.368H156.827V27H155.355Z" fill="white"/>
<rect x="0.5" y="0.5" width="167" height="43" rx="3.5" stroke="#DFDFDF"/>
</svg>
