<svg width="48" height="48" viewBox="0 0 48 48" fill="none" xmlns="http://www.w3.org/2000/svg">
<g clip-path="url(#clip0_301_28)">
<path d="M8 7.36883C8 6.0606 9.07456 5 10.4 5H21.6C22.9254 5 24 6.0606 24 7.36883V17.6338H10.4C9.07456 17.6338 8 16.5732 8 15.2649V7.36883ZM24 17.6338H37.6C38.9254 17.6338 40 18.6944 40 20.0026V27.8987C40 29.2069 38.9254 30.2675 37.6 30.2675H24V17.6338ZM8 32.6364C8 31.3281 9.07456 30.2675 10.4 30.2675H24V40.5325C24 41.8407 22.9254 42.9013 21.6 42.9013H10.4C9.07456 42.9013 8 41.8407 8 40.5325V32.6364Z" fill="white"/>
</g>
<defs>
<clipPath id="clip0_301_28">
<rect width="32" height="38" fill="white" transform="translate(8 5)"/>
</clipPath>
</defs>
</svg>
