<svg width="48" height="48" viewBox="0 0 48 48" fill="none" xmlns="http://www.w3.org/2000/svg">
<g clip-path="url(#clip0_301_9)">
<path d="M24 48C37.2548 48 48 37.2548 48 24C48 10.7452 37.2548 0 24 0C10.7452 0 0 10.7452 0 24C0 37.2548 10.7452 48 24 48Z" fill="white"/>
<path d="M24 30.72C27.7155 30.72 30.7276 27.7114 30.7276 24C30.7276 20.2886 27.7155 17.28 24 17.28C20.2845 17.28 17.2725 20.2886 17.2725 24C17.2725 27.7114 20.2845 30.72 24 30.72Z" fill="#202830"/>
<mask id="mask0_301_9" style="mask-type:luminance" maskUnits="userSpaceOnUse" x="29" y="17" width="14" height="14">
<path d="M42.1441 17.28H29.6787V30.8586H42.1441V17.28Z" fill="white"/>
</mask>
<g mask="url(#mask0_301_9)">
<path d="M35.4165 30.72C39.132 30.72 42.1441 27.7114 42.1441 24C42.1441 20.2886 39.132 17.28 35.4165 17.28C31.701 17.28 28.689 20.2886 28.689 24C28.689 27.7114 31.701 30.72 35.4165 30.72Z" fill="#202830"/>
</g>
<mask id="mask1_301_9" style="mask-type:luminance" maskUnits="userSpaceOnUse" x="5" y="17" width="14" height="14">
<path d="M18.3213 17.28H5.85596V30.8586H18.3213V17.28Z" fill="white"/>
</mask>
<g mask="url(#mask1_301_9)">
<path d="M12.5835 30.72C16.299 30.72 19.3111 27.7114 19.3111 24C19.3111 20.2886 16.299 17.28 12.5835 17.28C8.86798 17.28 5.85596 20.2886 5.85596 24C5.85596 27.7114 8.86798 30.72 12.5835 30.72Z" fill="#202830"/>
</g>
<path fill-rule="evenodd" clip-rule="evenodd" d="M18.2918 27.5581C17.6458 26.5262 17.2725 25.3067 17.2725 24C17.2725 22.6933 17.6458 21.4738 18.2918 20.4419C18.9378 21.4738 19.3111 22.6933 19.3111 24C19.3111 25.3067 18.9378 26.5262 18.2918 27.5581Z" fill="white"/>
<path fill-rule="evenodd" clip-rule="evenodd" d="M29.7083 20.4419C30.3543 21.4738 30.7276 22.6933 30.7276 24C30.7276 25.3067 30.3543 26.5262 29.7083 27.5581C29.0623 26.5262 28.689 25.3067 28.689 24C28.689 22.6933 29.0623 21.4738 29.7083 20.4419Z" fill="white"/>
</g>
<defs>
<clipPath id="clip0_301_9">
<rect width="48" height="48" fill="white"/>
</clipPath>
</defs>
</svg>
